Patient4_TMGait_0pt7_01_right_09_EMG.mot
version=1
nRows=37
nColumns=33
inDegrees=no
endheader
time	1LAddLong	2LGlutMax	3LGlutMed	4LIliopsoas	5LSemiMemb	6LBicFemLong	7LRecFem	8LVastMed	9LVastLat	10LGasMed	11LTibAnt	12lTibPost	13LPeroneusLong	14LSol	15LExtDigLong	16LFlexDigLong	17RAddLong	18RGlutMax	19RGlutMed	20RIliopsoas	21RSemiMemb	22RBicFemLong	23RRecFem	24RVastMed	25RVastLat	26RGasMed	27RTibAnt	28RTibPost	29RPeroneusLong	30RSol	31RExtDigLong	32RFlexDigLong
9.81	-0.007629	-0.38696	0.095673	-0.012054	-0.050507	-0.05661	0.13519	0.000916	-0.006256	0.036163	-0.014343	0.009918	-0.40756	0.28076	-0.013428	-0.013275	0.06134	-0.34073	-0.34561	0.024261	0.028381	0.070496	-0.046692	-0.24399	-0.020447	-0.000153	-0.85648	-0.011139	-0.25391	-0.032043	-0.018616	-0.012665
9.811	-0.019684	-0.41916	0.058441	-0.006104	-0.059204	-0.024261	0.1265	-0.002747	-0.025024	0.01709	-0.011749	0.006866	-1.239	0.15472	0.13886	-0.001831	0.086975	-0.32898	-0.36972	0.035706	0.023041	0.066528	-0.048828	-0.2121	0.006104	-0.015717	-0.7045	-0.014343	-0.13275	0.065613	-0.0177	-0.011749
9.812	-0.001068	-0.43137	0	-0.001526	-0.099182	0.000153	0.11643	-0.010223	-0.012817	-0.15167	-0.02655	0.011292	-0.37643	0.15732	0.21378	0.009155	0.059814	-0.4007	-0.63339	0.077667	0.021667	0.059052	0.14679	-0.16525	0.02182	-0.021667	-0.47913	-0.014801	0.021667	0.051727	-0.02594	0.005035
9.813	0.011597	-0.38681	0.00885	0.019989	-0.112	0.015869	0.09964	0.008392	-0.011749	-0.3215	-0.078583	0.006714	0.46387	0.077667	0.093384	-0.005646	-0.003662	-0.39719	-0.57205	0.076447	0.021515	0.063019	0.45075	-0.087128	0.04364	-0.000916	-0.15167	-0.013885	-0.048065	-0.00412	-0.00824	-0.007935
9.814	0.019684	-0.37079	-0.025635	0.001831	-0.039063	0.048218	0.039368	0.010071	-0.006256	-0.29373	0.025024	0.004883	-0.05661	-0.065002	0.10696	-0.023651	-0.036163	-0.30441	-0.42893	0.046844	0.020599	0.053558	0.54779	-0.033722	-0.000458	0.004425	0.16846	-0.010681	0.096588	-0.000458	-0.015869	-0.006256
9.815	0.020752	-0.34027	-0.040283	-0.006409	0.005951	0.11307	0.033264	0.023956	-0.0177	-0.19348	0.026703	0.001373	-0.10376	0.001984	0.046692	-0.049286	-0.066376	-0.28534	0.072021	-0.078888	0.027924	0.053864	0.30365	-0.093842	0.004883	0.000763	0.79361	-0.015106	-0.31601	0.00351	-0.025787	-0.003052
9.816	0.005493	-0.32089	0.23682	0.006561	-0.024109	0.20874	0.054779	0.006104	-0.073242	-0.15869	0.010681	0.02533	0.74966	0.076141	0.27298	-0.017853	-0.054016	-0.26886	0.50293	-0.061951	0.024567	0.048523	-0.024261	-0.1004	0.003662	-0.002441	0.82092	-0.007324	-0.53757	0.070038	-0.004425	-0.00885
9.817	0.000763	-0.32288	-0.08606	0.019836	-0.081787	0.19974	0.094147	0.008392	-0.06012	-0.092468	0.034332	-0.006866	-0.77576	0.088196	0.14435	0.12665	-0.04776	-0.32303	0.26794	-0.018616	0.023804	0.046082	-0.4007	-0.067596	-0.028687	-0.003052	0.85113	-0.006409	-0.6543	0.045776	-0.007935	-0.007935
9.818	0.011749	-0.25513	0.036011	0.022888	0.037689	0.1236	0.074463	-0.002289	-0.023651	-0.17181	0.000763	0.002289	-0.39627	-0.012207	0.049133	0.050201	-0.026398	-0.35889	0.012817	-0.080566	0.03006	0.05661	-0.47714	-0.053253	-0.033112	-0.000153	0.5983	-0.012207	-0.45807	-0.070496	-0.012665	-0.001831
9.819	0.007172	-0.23041	0.041656	-0.009155	0.18158	0.082855	0.080261	0.002136	0.013733	-0.12161	-0.035095	0.027466	0.91965	-0.13062	-0.14633	-0.074463	-0.028687	-0.33691	-0.28961	-0.16144	0.041962	0.045319	-0.14343	0.005341	-0.031433	-0.001526	0.46081	-0.006409	0.25223	-0.14008	-0.012665	-0.011444
9.82	0.00824	-0.21591	0.053711	-0.016022	0.11948	0.093689	0.064697	-0.00885	0.008698	0.11307	0.002594	0.043793	0.28854	-0.40695	-0.13031	0.19898	-0.019989	-0.33341	-0.34882	-0.17944	0.03418	0.06424	0.063171	-0.007019	-0.030975	0.00061	0.42297	-0.003662	-0.20386	-0.23895	-0.004578	-0.007782
9.821	0.011292	-0.1857	0.054474	-0.041504	0.073853	0.006866	-0.003967	0.005188	0.018311	0.26459	0.003357	0.02594	-0.094299	-0.47623	-0.13245	0.06424	-0.023193	-0.27802	-0.35492	-0.17548	0.046844	0.054016	0.14816	0.13596	-0.014496	0.00885	-0.13794	-0.011749	-0.42297	-0.25589	-0.004425	-0.003052
9.822	-0.000458	-0.2211	0.0354	-0.026245	0.042877	-0.049133	-0.041351	0.020294	0.019989	0.1741	-0.019379	-0.029602	-0.047607	-0.37369	-0.10742	-0.1268	-0.024109	-0.27878	-0.22003	-0.053253	0.061951	0.040894	-0.02243	0.13062	-0.020905	0.019226	0.032501	-0.002747	0.056763	-0.26901	-0.004425	-0.003052
9.823	-0.00351	-0.18356	0.065308	0.019684	0.006714	-0.072174	-0.030975	0.031433	0.012665	-0.005951	0.005951	-0.017395	0.36789	-0.16953	0.047607	-0.080109	-0.014648	-0.27802	-0.14847	0.13641	0.074463	0.035095	0.090942	0.10574	-0.031128	0.014038	0.51163	0.002136	0.40054	-0.3244	-0.008392	-0.006409
9.824	-0.005798	-0.1648	0.019226	0.046844	0.02533	-0.035248	-0.001373	0.021362	0.01358	-0.039368	0.043335	0.011902	-0.28748	-0.30579	-0.078583	-0.018768	0.004425	-0.24857	0.39703	0.094299	0.078125	0.011597	0.18509	0.087891	-0.028076	0.005951	0.6842	-0.003662	0.24506	-0.3717	-0.005188	-0.002899
9.825	0.011444	-0.15915	-0.015411	0.023346	0.024109	0.082855	-0.016937	0.023041	0.014648	0.049591	0.054779	0.014801	-0.2063	-0.32501	-0.26398	-0.009918	0.026703	-0.25711	0.30106	-0.002441	0.072937	-0.014343	0.29114	0.050812	-0.025177	-0.004883	0.23911	-0.003815	0.37872	-0.26077	-0.00351	-0.007782
9.826	0.009613	-0.10635	0.003204	0.018158	-0.0354	0.1326	0.039825	0.022278	0.063629	0.10223	-0.013123	0.009155	0.64468	-0.079651	-0.006409	-0.013428	0.068665	-0.21881	0.055695	-0.005646	0.050201	-0.004272	0.34454	0.031128	0.016327	-0.005646	0.041809	-0.002594	0.020142	-0.21225	-0.003204	-0.010986
9.827	0.010529	-0.11734	0.001526	0.00824	-0.067444	0.11871	-0.014191	0.034943	0.089569	0.070343	0.025787	0.007019	0.5452	-0.052948	0.035706	0.006409	0.064545	-0.16357	0.11765	0.006409	-0.027771	-0.022278	0.36774	0.028534	0.010986	0.001678	-0.10544	-0.003662	-0.18662	-0.19836	-0.007172	-0.010681
9.828	0.022736	-0.075531	-0.07843	0.005035	-0.054474	0.028839	-0.057068	0.009155	0.066833	0.018921	-0.00824	0	-0.37933	0.019379	0.11017	0.014343	0.032043	-0.12405	0.085144	0.000153	-0.11444	0.021362	0.16357	-0.063629	0.010834	-0.001068	-0.3923	0.007324	-0.13947	-0.099335	-0.003052	-0.009766
9.829	0.033722	-0.07782	-0.12375	-0.000916	0.050507	-0.1886	-0.014191	-0.022736	0.18692	0.093231	-0.028687	-0.005035	-0.46845	0.17654	0.15137	0.009766	-0.010681	-0.13596	0.041199	0.074463	-0.083923	0.054169	0.003815	-0.094452	0.005341	0.000916	-0.17777	-0.00351	-0.16571	0.045013	-0.00412	-0.012054
9.83	0.024872	-0.090637	0.04837	0.003662	-0.007324	-0.11673	0.03891	-0.019684	0.11139	0.15366	-0.028687	-0.001984	-0.058746	0.1741	-0.067444	-0.003052	-0.039978	-0.1178	0.089722	0.14252	0.098877	0.10696	-0.15045	-0.13504	0.009308	-0.005188	-0.095673	-0.003662	-0.13886	0.12985	-0.004578	0.001984
9.831	0.016937	-0.086212	0.10864	0.023193	-0.024414	-0.016327	0.10742	-0.010986	0.09552	0.075531	-0.016937	-0.002899	0.28564	0.24414	0.06485	-0.012054	-0.046387	-0.13397	0.11749	0.15182	0.15228	0.11124	-0.35431	-0.2153	-0.011597	0.001831	-0.027466	-0.001373	-0.16647	0.11704	-0.003662	-0.000153
9.832	-0.007172	-0.063782	0.083771	0.014648	0.001831	-0.016022	0.12375	-0.002899	0.067596	-0.10346	0.008392	-0.009308	0.42206	0.1799	0.10559	0.001221	-0.04425	-0.12314	0.12695	0.13138	0.11688	0.075684	-0.17502	-0.24338	-0.020142	0.002289	-0.12268	0.001068	-0.53253	0.12512	-0.001831	-0.00061
9.833	-0.018158	-0.038757	0.12634	0	-0.051422	-0.072937	0.092316	0.005951	0.050201	-0.12695	0.046692	0.000763	0.00412	0.092163	0.097198	0.007629	-0.018005	-0.093842	0.21118	0.11749	0.061646	0.018768	-0.15137	-0.29373	-0.034485	0.00473	-0.32806	0.002441	-0.51285	0.042419	-0.005646	0.001984
9.834	-0.010529	-0.079041	0.047455	-0.014038	-0.029755	-0.030518	0.057526	0.016632	0.079346	-0.051727	0.047913	-0.002441	-0.3418	0.18127	-0.094604	0.006714	-0.01709	-0.1503	0.21164	0.080719	0.007477	0.020599	-0.112	-0.33615	-0.076294	-0.003052	-0.097809	0.000305	0.20905	-0.099487	-0.003052	0.010681
9.835	-0.011749	-0.079193	-0.005493	-0.014038	0.046082	-0.049286	0.069733	0.008087	0.074921	0.019836	0.011902	-0.009613	0.028534	0.20767	-0.21286	0.02533	0.010681	-0.11871	0.1561	0.030212	0.016937	0.013428	-0.070343	-0.22934	-0.047607	0.002441	0.61661	0.001678	0.51559	-0.23666	-0.00351	0.002899
9.836	-0.012207	-0.11917	-0.015564	-0.003662	0.039978	-0.10605	0.062561	0.016479	0.082245	-0.082703	0.010529	-0.010529	0.72144	0.15488	-0.12848	0.013275	0.005188	-0.084534	0.17654	-0.002136	0.025482	0.021057	0.1239	-0.099945	-0.021973	-0.001678	1.0591	0.001526	0.13962	-0.17899	-0.01358	0.007172
9.837	-0.000458	-0.088043	-0.064545	-0.004578	0.042725	-0.1648	0.020447	-0.001221	0.1001	-0.1503	-0.006409	-0.006409	0.73456	0.13886	0.014191	0.005951	-0.00412	-0.052185	0.14801	-0.028839	0.015717	0.008698	0.18463	-0.035858	-0.002441	-0.018311	1.088	0.001678	0.2594	-0.017395	-0.002899	-0.001221
9.838	0.021973	-0.050049	0.024261	0.008392	0.084991	-0.11475	0.029144	0.004578	0.098572	-0.081177	-0.012665	-0.001068	-0.86914	0.0914	0.095825	0.01236	0.000763	-0.048981	-0.3627	-0.11597	0.005188	0.009155	0.28366	-0.007477	-0.030212	-0.010986	0.52597	-0.000916	0.3009	-0.18601	-0.007172	0.006256
9.839	0.02182	0.021973	0.14374	0.014191	0.005188	-0.059967	0.045166	0.000916	0.089111	0.083313	-0.032349	0.098114	-0.76752	-0.085907	0.046539	0.007477	-0.006104	0.013885	0.043488	-0.14206	0.010986	0.016327	0.24429	0.11887	-0.032196	0.004425	-0.12024	0.001831	0.3801	-0.32089	-0.008087	0.006409
9.84	0.025787	0.089569	0.11841	0.001373	-0.080566	-0.033417	0.054626	0.011444	0.078735	-0.044556	-0.015106	-0.012665	-0.066986	-0.11475	0.1152	0.007935	-0.012207	0.053711	-0.26901	-0.19043	0.037842	0.022583	0.1445	0.19455	-0.020905	-0.00412	-0.017853	0.000763	0.20096	-0.15381	-0.007782	-0.001984
9.841	0.028381	0.070953	-0.005188	0.019073	-0.037079	-0.002747	0.056458	0.004883	0.075378	-0.26672	0.009613	-0.0914	0.011292	-0.26504	0.059662	-0.006104	-0.001984	-0.016022	0.8635	-0.11322	0.056	-0.0177	0.18494	0.17685	0.023346	-0.003815	-0.55054	-0.001373	0.3064	0.070343	-0.005493	0.001984
9.842	0.031891	0.086517	-0.023804	0.033264	0.036621	0.04364	0.070343	-0.006866	0.08728	-0.57526	0.001221	-0.040131	0.052795	-0.35461	0.01297	0.015564	0.020294	-0.12787	1.4259	-0.027466	0.082855	-0.038452	0.046234	0.059662	0.045166	0.005188	-1.7436	-0.001068	0.33646	0.042572	-0.005798	0.001678
9.843	0.036926	0.11246	0.097198	0.01236	0.057831	0.099945	0.077209	-0.003967	0.083771	-0.67642	0.024719	-0.039215	0.091248	-0.39719	0.039063	0.009155	0.047607	-0.19379	1.0663	0.049133	0.044403	0.037079	0.019379	-0.009613	0.047913	0.007172	-1.2138	-0.003967	-0.080109	0.036163	-0.010834	-0.009918
9.844	0.036316	0.11246	0.048065	0.001984	0.049591	0.13443	0.10529	-0.000153	0.093689	-0.27802	0.006561	-0.04303	-0.15961	-0.19089	0.052338	0.002289	0.050049	-0.22324	0.58411	0.031128	0.024872	0.044403	-0.2713	-0.019073	0.020294	0.001221	-0.5719	-0.001221	-0.09903	0.12116	-0.002899	-0.033722
9.845	0.021667	0.11597	-0.005341	-0.009613	0.046844	0.12375	0.14191	0.003815	0.064392	0.036469	-0.033875	0.013733	0.064392	-0.19012	0.008087	-0.020142	0.047913	-0.14023	0.38025	0.009766	-0.025635	0.062408	-0.44128	-0.085144	0.013733	-0.000458	-0.2356	-0.002747	0.089722	0.11673	-0.004425	-0.027924
9.846	0.01236	0.098724	0.06897	0.014343	0.030518	0.0737	0.18601	0.006561	0.044556	0.070953	-0.045319	0.030212	-0.018768	-0.026855	0.050659	0.033264	-0.025482	-0.14938	0.47562	-0.006409	-0.093384	0.098114	-0.37186	-0.058441	0.010223	-0.011444	-0.20218	-0.00061	0.092316	0.12482	-0.006409	-0.04425
